HIERARCHY
ROOT Hips
{
	OFFSET -0.001795 -0.223333 0.028219
	CHANNELS 6 Xposition Yposition Zposition Zrotation Yrotation Xrotation 
	JOINT LeftUpLeg
	{
		OFFSET 0.069520 -0.091406 -0.006815
		CHANNELS 3 Zrotation Yrotation Xrotation
		JOINT LeftLeg
		{
			OFFSET 0.034277 -0.375199 -0.004496
			CHANNELS 3 Zrotation Yrotation Xrotation
			JOINT LeftFoot
			{
				OFFSET -0.013596 -0.397961 -0.043693
				CHANNELS 3 Zrotation Yrotation Xrotation
				JOINT LeftToe
				{
					OFFSET 0.026358 -0.055791 0.119288
					CHANNELS 3 Zrotation Yrotation Xrotation
					End Site
					{
						OFFSET 0.000000 0.000000 0.000000
					}
				}
			}
		}
	}
	JOINT RightUpLeg
	{
		OFFSET -0.067670 -0.090522 -0.004320
		CHANNELS 3 Zrotation Yrotation Xrotation
		JOINT RightLeg
		{
			OFFSET -0.038290 -0.382569 -0.008850
			CHANNELS 3 Zrotation Yrotation Xrotation
			JOINT RightFoot
			{
				OFFSET 0.015774 -0.398415 -0.042312
				CHANNELS 3 Zrotation Yrotation Xrotation
				JOINT RightToe
				{
					OFFSET -0.025372 -0.048144 0.123348
					CHANNELS 3 Zrotation Yrotation Xrotation
					End Site
					{
						OFFSET 0.000000 0.000000 0.000000
					}
				}
			}
		}
	}
	JOINT Spine
	{
		OFFSET -0.002533 0.108963 -0.026696
		CHANNELS 3 Zrotation Yrotation Xrotation
		JOINT Spine1
		{
			OFFSET 0.005487 0.135180 0.001092
			CHANNELS 3 Zrotation Yrotation Xrotation
			JOINT Spine2
			{
				OFFSET 0.001457 0.052922 0.025425
				CHANNELS 3 Zrotation Yrotation Xrotation
				JOINT Neck
				{
					OFFSET -0.002778 0.213870 -0.042857
					CHANNELS 3 Zrotation Yrotation Xrotation
					JOINT Head
					{
						OFFSET 0.005152 0.064970 0.051349
						CHANNELS 3 Zrotation Yrotation Xrotation
						End Site
						{
							OFFSET 0.000000 0.000000 0.000000
						}
					}
				}
				JOINT LeftShoulder
				{
					OFFSET 0.078845 0.121749 -0.034090
					CHANNELS 3 Zrotation Yrotation Xrotation
					JOINT LeftArm
					{
						OFFSET 0.090977 0.030469 -0.008868
						CHANNELS 3 Zrotation Yrotation Xrotation
						JOINT LeftForeArm
						{
							OFFSET 0.259612 -0.012772 -0.027456
							CHANNELS 3 Zrotation Yrotation Xrotation
							JOINT LeftHand
							{
								OFFSET 0.249234 0.008986 -0.001171
								CHANNELS 3 Zrotation Yrotation Xrotation
								End Site
								{
									OFFSET 0.000000 0.000000 0.000000
								}
							}
						}
					}
				}
				JOINT RightShoulder
				{
					OFFSET -0.081759 0.118833 -0.038615
					CHANNELS 3 Zrotation Yrotation Xrotation
					JOINT RightArm
					{
						OFFSET -0.096012 0.032551 -0.009143
						CHANNELS 3 Zrotation Yrotation Xrotation
						JOINT RightForeArm
						{
							OFFSET -0.253742 -0.013329 -0.021401
							CHANNELS 3 Zrotation Yrotation Xrotation
							JOINT RightHand
							{
								OFFSET -0.255298 0.007772 -0.005559
								CHANNELS 3 Zrotation Yrotation Xrotation
								End Site
								{
									OFFSET 0.000000 0.000000 0.000000
								}
							}
						}
					}
				}
			}
		}
	}
}
MOTION
Frames: 9
Frame Time: 0.050000
0.000000 0.942865 0.000000 0.544232 -1.056736 9.500236 4.568519 -0.491570 -6.685006 0.289018 -0.026047 -0.138729 2.229307 8.770757 14.996227 0.000000 0.000000 0.000000 -4.501357 0.660256 -7.261179 -4.123168 0.157031 -3.389601 -2.309335 -10.306865 15.688213 0.000000 0.000000 0.000000 4.891904 0.255178 -5.341506 -2.769314 1.260569 -6.078045 -4.363654 4.789212 4.104176 2.431768 -0.811411 -7.767725 0.000000 0.000000 0.000000 -15.945438 2.093120 -3.571897 -55.232855 -6.612484 -3.401054 -7.145776 -13.762465 1.247748 0.000000 0.000000 0.000000 13.750749 -9.972547 -5.365417 64.107492 0.458974 -5.463098 5.111701 21.187510 1.779619 0.000000 0.000000 0.000000 
-0.000084 0.942311 0.000390 0.632923 -1.429526 10.209408 4.181023 -0.495559 -6.490804 0.734906 -0.011803 -1.686615 2.382281 9.001717 15.234843 0.000000 0.000000 0.000000 -4.690593 0.715695 -8.032904 -4.060593 0.141568 -3.486207 -2.195610 -10.140703 15.564689 0.000000 0.000000 0.000000 6.374197 0.309006 -5.890497 -3.775416 1.648544 -6.647418 -5.601685 5.612601 3.942640 0.993933 0.357981 -8.732086 0.000000 0.000000 0.000000 -16.336093 3.053794 -4.282165 -53.989373 -6.232430 -3.440102 -7.731211 -13.124751 1.234666 0.000000 0.000000 0.000000 13.151718 -11.545750 -5.952655 66.079172 -0.781877 -6.132039 5.610066 21.796432 1.965868 0.000000 0.000000 0.000000 
-0.000187 0.942404 0.000541 1.376514 -0.873336 9.840705 3.683359 -0.523477 -6.749416 0.315549 -0.006944 -0.736332 2.031995 8.542709 15.191569 0.000000 0.000000 0.000000 -5.294936 0.694528 -8.088627 -4.323321 0.247939 -2.404808 -2.603782 -10.680823 15.185777 0.000000 0.000000 0.000000 5.647264 0.262505 -5.459845 -3.763771 1.641068 -7.497466 -5.904837 4.811634 4.076247 0.651160 0.449453 -7.678852 0.000000 0.000000 0.000000 -15.912417 2.675049 -3.924027 -53.699639 -5.798364 -3.646879 -7.872314 -12.194659 1.172157 0.000000 0.000000 0.000000 14.233345 -10.117771 -5.446096 64.372338 -1.124512 -6.326710 6.596483 21.811450 2.119393 0.000000 0.000000 0.000000 
-0.000221 0.942383 0.000579 1.737935 -0.559564 10.269277 3.590432 -0.563005 -7.280221 -0.120159 0.037331 -0.747067 1.828252 8.307573 15.321534 0.000000 0.000000 0.000000 -5.546427 0.726650 -8.779159 -4.550412 0.311599 -1.851134 -2.849000 -11.044034 15.111879 0.000000 0.000000 0.000000 5.540511 0.280097 -5.780806 -4.146365 1.807879 -6.653561 -6.029130 3.975780 2.527292 -0.355936 0.980734 -6.494616 0.000000 0.000000 0.000000 -16.290521 3.610163 -4.385442 -53.796600 -5.890103 -3.450849 -6.860999 -11.644926 1.021559 0.000000 0.000000 0.000000 13.050680 -10.369175 -5.505663 65.283721 -1.761834 -6.573266 7.746669 22.721915 2.387800 0.000000 0.000000 0.000000 
-0.000239 0.942775 0.000552 2.082770 -0.170366 10.063299 3.077965 -0.572746 -7.188723 0.202017 0.001537 -0.642051 1.570122 7.998954 15.426683 0.000000 0.000000 0.000000 -5.729325 0.712513 -8.777584 -4.814400 0.384908 -1.272823 -3.076260 -11.378195 15.091816 0.000000 0.000000 0.000000 4.967487 0.249881 -5.482661 -3.634111 1.611126 -6.703320 -6.334144 3.425314 2.499886 -0.810458 1.369195 -7.409839 0.000000 0.000000 0.000000 -16.236170 3.638963 -4.342693 -53.654794 -6.224987 -3.292102 -7.515918 -11.273050 1.054785 0.000000 0.000000 0.000000 12.865103 -10.089980 -5.374812 65.133367 -1.636329 -6.503649 8.178478 22.676448 2.448058 0.000000 0.000000 0.000000 
-0.000215 0.943212 0.000503 2.290657 -0.288775 10.067569 2.798467 -0.578770 -7.173232 0.257166 -0.003072 -0.669012 1.571103 8.038691 15.648985 0.000000 0.000000 0.000000 -5.966382 0.700281 -8.627381 -4.825610 0.357919 -1.601708 -2.999890 -11.283687 15.232997 0.000000 0.000000 0.000000 4.760716 0.244706 -5.423671 -3.803152 1.674038 -6.928622 -6.240421 3.281460 2.447151 -1.187630 1.602128 -7.248354 0.000000 0.000000 0.000000 -16.599718 3.963045 -4.533028 -53.285842 -6.653635 -3.063232 -7.319672 -10.900067 1.005559 0.000000 0.000000 0.000000 12.596629 -9.850588 -5.249145 65.380936 -1.609212 -6.518788 8.517252 22.838918 2.518168 0.000000 0.000000 0.000000 
-0.000197 0.943404 0.000394 2.346681 -0.200844 9.930470 2.702302 -0.583862 -7.215389 0.332173 -0.021549 -0.370159 1.523958 7.980811 15.648136 0.000000 0.000000 0.000000 -5.986979 0.687466 -8.444593 -4.876174 0.360600 -1.636083 -3.028505 -11.331408 15.291890 0.000000 0.000000 0.000000 4.569777 0.236479 -5.318463 -3.646793 1.615445 -6.845546 -6.318312 2.939332 2.314014 -1.068968 1.536407 -7.629934 0.000000 0.000000 0.000000 -16.457586 3.791191 -4.371904 -53.408584 -6.598032 -3.089604 -7.897265 -11.419415 1.112392 0.000000 0.000000 0.000000 12.836577 -9.539047 -5.169072 65.334666 -1.399451 -6.425591 8.630560 23.032285 2.550013 0.000000 0.000000 0.000000 
-0.000172 0.943656 0.000254 2.393811 0.183862 9.962411 2.565603 -0.612335 -7.546779 0.571448 -0.061380 0.030771 1.339637 7.754020 15.623802 0.000000 0.000000 0.000000 -5.952301 0.674900 -8.270714 -4.959290 0.352209 -1.856789 -3.190769 -11.589590 15.497449 0.000000 0.000000 0.000000 4.397903 0.237919 -5.388126 -3.574366 1.592828 -6.801579 -6.298342 2.632087 2.193430 -0.969536 1.439083 -7.360043 0.000000 0.000000 0.000000 -16.508905 3.374192 -4.163073 -53.338810 -6.959093 -2.909101 -8.599700 -12.083038 1.250253 0.000000 0.000000 0.000000 13.011270 -9.317344 -5.101520 65.365976 -1.317184 -6.384737 8.676726 23.281720 2.584234 0.000000 0.000000 0.000000 
-0.000194 0.944047 0.000059 2.401936 0.454730 9.932299 2.585024 -0.614225 -7.566591 0.586283 -0.062442 0.024088 1.176589 7.565719 15.702805 0.000000 0.000000 0.000000 -5.916527 0.660990 -8.052939 -4.977960 0.335796 -2.096161 -3.285869 -11.747601 15.720166 0.000000 0.000000 0.000000 4.262715 0.240933 -5.455749 -3.383700 1.521150 -6.900329 -6.248408 2.376120 2.197730 -0.894407 1.375214 -7.287193 0.000000 0.000000 0.000000 -16.522228 3.008367 -3.962280 -53.618169 -7.325961 -2.766083 -9.192762 -12.466809 1.355657 0.000000 0.000000 0.000000 13.092516 -8.900906 -4.926382 65.518480 -1.211763 -6.360867 8.439749 23.627296 2.576848 0.000000 0.000000 0.000000 
